<svg id="Capa_1" enable-background="new 0 0 511.99 511.99" height="512" viewBox="0 0 511.99 511.99" width="512" xmlns="http://www.w3.org/2000/svg"><g><path d="m369.5 0c-4.142 0-7.5 3.357-7.5 7.5v59.99h15v-59.99c0-4.143-3.358-7.5-7.5-7.5z" fill="#468943"/><path d="m440.745 19.09c-3.587-2.071-8.174-.842-10.245 2.745l-29.995 51.953 12.99 7.5 29.995-51.953c2.072-3.587.842-8.174-2.745-10.245z" fill="#468943"/><path d="m492.9 71.245c-2.071-3.587-6.658-4.816-10.245-2.745l-51.953 29.995 7.5 12.99 51.953-29.995c3.587-2.071 4.816-6.658 2.745-10.245z" fill="#468943"/><path d="m511.99 142.49c0-4.142-3.357-7.5-7.5-7.5h-59.99v15h59.99c4.143 0 7.5-3.358 7.5-7.5z" fill="#468943"/><path d="m227.01 142.49c0 4.142 3.357 7.5 7.5 7.5h59.99v-15h-59.99c-4.143 0-7.5 3.358-7.5 7.5z" fill="#5b9b40"/><path d="m246.1 71.245c-2.071 3.587-.842 8.174 2.745 10.245l51.953 29.995 7.5-12.99-51.953-29.995c-3.587-2.071-8.174-.842-10.245 2.745z" fill="#5b9b40"/><path d="m298.255 19.09c-3.587 2.071-4.816 6.658-2.745 10.245l29.995 51.953 12.99-7.5-29.995-51.953c-2.071-3.587-6.658-4.816-10.245-2.745z" fill="#5b9b40"/><path d="m227.946 195.117c-3.768-1.719-8.217-.061-9.938 3.707s-.061 8.217 3.707 9.938l54.578 24.925 6.231-13.645z" fill="#5b9b40"/><path d="m191.658 243.449c-2.24-3.485-6.882-4.492-10.364-2.255-3.485 2.239-4.494 6.88-2.255 10.364l32.438 50.475 12.619-8.109z" fill="#5b9b40"/><path d="m7.5 376.99c-4.142 0-7.5 3.357-7.5 7.5s3.358 7.5 7.5 7.5h60v-15z" fill="#5b9b40"/><path d="m27.327 317.995c-3.587-2.071-8.174-.842-10.245 2.745-2.071 3.588-.842 8.174 2.745 10.245l51.962 30 7.5-12.99z" fill="#5b9b40"/><path d="m73.995 276.817c-2.071-3.587-6.658-4.816-10.245-2.745-3.588 2.071-4.816 6.658-2.745 10.245l30 51.962 12.99-7.5z" fill="#5b9b40"/><path d="m135 264.49c0-4.142-3.357-7.5-7.5-7.5s-7.5 3.358-7.5 7.5v60h15z" fill="#5b9b40"/><g fill="#468943"><path d="m506.052 208.465c.74-4.076-1.964-7.979-6.04-8.719l-59.026-10.712-2.678 14.759 59.026 10.712c4.076.74 7.979-1.964 8.718-6.04z"/><path d="m488.43 272.32c1.455-3.878-.508-8.201-4.386-9.657l-56.165-21.079-5.271 14.044 56.165 21.079c3.878 1.455 8.201-.509 9.657-4.387z"/><path d="m459.689 332.001c2.124-3.556.965-8.16-2.592-10.285l-51.499-30.769-7.693 12.877 51.499 30.769c3.556 2.125 8.16.964 10.285-2.592z"/><path d="m420.753 385.592c2.725-3.119 2.406-7.857-.714-10.583l-45.177-39.47-9.869 11.296 45.177 39.47c3.12 2.726 7.857 2.406 10.583-.713z"/><path d="m372.874 431.369c3.238-2.583 3.77-7.301 1.188-10.54l-37.403-46.902-11.727 9.352 37.403 46.902c2.581 3.239 7.3 3.771 10.539 1.188z"/><path d="m317.59 467.861c3.648-1.963 5.013-6.511 3.05-10.159l-28.427-52.827-13.209 7.108 28.427 52.827c1.964 3.649 6.512 5.014 10.159 3.051z"/><path d="m256.679 493.896c3.939-1.28 6.095-5.511 4.815-9.451l-18.538-57.054-14.266 4.635 18.538 57.054c1.281 3.941 5.512 6.096 9.451 4.816z"/><path d="m192.098 508.636c4.105-.556 6.981-4.334 6.425-8.439l-8.053-59.447-14.864 2.013 8.053 59.447c.556 4.106 4.334 6.982 8.439 6.426z"/><path d="m120 504.49c0 4.142 3.357 7.5 7.5 7.5s7.5-3.358 7.5-7.5v-60h-15z"/><path d="m61.005 484.663c-2.071 3.587-.842 8.174 2.745 10.245s8.174.842 10.245-2.745l30-51.962-12.99-7.5z"/><path d="m19.827 437.995c-3.587 2.071-4.816 6.658-2.745 10.245 2.071 3.588 6.658 4.816 10.245 2.745l51.962-30-7.5-12.99z"/></g><path d="m369.5 37.49c-57.99 0-105 47.01-105 105v15c0 75.663-61.337 137-137 137-49.706 0-90 40.294-90 90s40.294 90 90 90h15c183.358 0 332-148.641 332-332 0-57.99-47.01-105-105-105z" fill="#70ae3e"/><path d="m444.5 142.49c0-38.845-29.685-70.882-67.561-74.629l-90.51 218.558-218.869 100.449c1.254 31.985 27.653 57.622 59.94 57.622h15c80.667 0 156.506-31.413 213.546-88.454 57.041-57.04 88.454-132.879 88.454-213.546z" fill="#9dcb3b"/><path d="m116.113 413.45 14.529.472c78.131 2.536 150.599-25.506 204.053-78.961 53.455-53.454 81.497-125.921 78.961-204.053-.849-26.16-15.499-49.58-36.716-63.047-2.448-.242-4.929-.371-7.439-.371-41.355 0-75 33.645-75 75v15c0 92.084-74.916 167-167 167-33.084 0-60 26.916-60 60 0 .797.029 1.588.06 2.378 10.995 15.454 28.794 25.941 48.552 26.582z" fill="#cede51"/><circle cx="97.5" cy="384.49" fill="#9dcb3b" r="7.5"/><circle cx="127.5" cy="414.49" fill="#70ae3e" r="7.5"/><circle cx="334.833" cy="334.823" fill="#70ae3e" r="7.5"/><circle cx="414.5" cy="142.49" fill="#70ae3e" r="7.5"/><circle cx="384.5" cy="172.49" fill="#9dcb3b" r="7.5"/><circle cx="369.5" cy="97.49" fill="#9dcb3b" r="7.5"/></g></svg>